<svg xmlns="http://www.w3.org/2000/svg" width="1920" height="1080"><path d="M31,1284L-117,1258L143,1306Z" fill="#a14a68" stroke="#a14a68" stroke-width="1.51"/><path d="M-208,-257L295,-215L708,-266Z" fill="#d34936" stroke="#d34936" stroke-width="1.51"/><path d="M708,-266L1238,-222L1389,-236Z" fill="#db907f" stroke="#db907f" stroke-width="1.51"/><path d="M1320,1320L858,1308L1520,1345Z" fill="#8d96ca" stroke="#8d96ca" stroke-width="1.51"/><path d="M858,1308L324,1341L1520,1345Z" fill="#a598aa" stroke="#a598aa" stroke-width="1.51"/><path d="M708,-266L1389,-236L1588,-238Z" fill="#d48c87" stroke="#d48c87" stroke-width="1.51"/><path d="M708,-266L1588,-238L1927,-252Z" fill="#c38382" stroke="#c38382" stroke-width="1.51"/><path d="M1655,1318L1520,1345L2041,1339Z" fill="#526fb3" stroke="#526fb3" stroke-width="1.51"/><path d="M1949,680L2041,743L2049,527Z" fill="#9ba6c7" stroke="#9ba6c7" stroke-width="1.51"/><path d="M2069,-227L1987,-20L2085,-30Z" fill="#a24c69" stroke="#a24c69" stroke-width="1.51"/><path d="M1930,1254L2041,1339L2087,1131Z" fill="#4160aa" stroke="#4160aa" stroke-width="1.51"/><path d="M1946,857L2065,947L2089,794Z" fill="#7896c7" stroke="#7896c7" stroke-width="1.51"/><path d="M2087,391L2049,527L2089,794Z" fill="#a2a0b7" stroke="#a2a0b7" stroke-width="1.51"/><path d="M2049,527L2041,743L2089,794Z" fill="#959eca" stroke="#959eca" stroke-width="1.51"/><path d="M2065,947L2087,1131L2089,794Z" fill="#6784be" stroke="#6784be" stroke-width="1.51"/><path d="M1907,185L2072,281L2123,88Z" fill="#ad7c85" stroke="#ad7c85" stroke-width="1.51"/><path d="M1900,119L1907,185L2123,88Z" fill="#b07a83" stroke="#b07a83" stroke-width="1.51"/><path d="M2085,-30L1987,-20L2123,88Z" fill="#a85872" stroke="#a85872" stroke-width="1.51"/><path d="M1987,-20L1900,119L2123,88Z" fill="#ae6a7a" stroke="#ae6a7a" stroke-width="1.51"/><path d="M2069,-227L2085,-30L2123,88Z" fill="#a24a6a" stroke="#a24a6a" stroke-width="1.51"/><path d="M2072,281L2087,391L2123,88Z" fill="#aa7d8a" stroke="#aa7d8a" stroke-width="1.51"/><path d="M2087,391L2089,794L2123,88Z" fill="#a793a1" stroke="#a793a1" stroke-width="1.51"/><path d="M2089,794L2087,1131L2123,88Z" fill="#9599c5" stroke="#9599c5" stroke-width="1.51"/><path d="M1588,-238L1755,-201L1927,-252Z" fill="#a56674" stroke="#a56674" stroke-width="1.51"/><path d="M1930,1254L1655,1318L2041,1339Z" fill="#4666ad" stroke="#4666ad" stroke-width="1.51"/><path d="M1927,-252L1987,-20L2069,-227Z" fill="#9c4c68" stroke="#9c4c68" stroke-width="1.51"/><path d="M1910,1183L1930,1254L2087,1131Z" fill="#456fb2" stroke="#456fb2" stroke-width="1.51"/><path d="M2065,947L1903,943L2087,1131Z" fill="#6186be" stroke="#6186be" stroke-width="1.51"/><path d="M1903,943L1910,1183L2087,1131Z" fill="#5582bb" stroke="#5582bb" stroke-width="1.51"/><path d="M1944,514L2049,527L2087,391Z" fill="#a8a2ad" stroke="#a8a2ad" stroke-width="1.51"/><path d="M1906,429L1944,514L2087,391Z" fill="#aba6ab" stroke="#aba6ab" stroke-width="1.51"/><path d="M2072,281L1906,429L2087,391Z" fill="#aa989e" stroke="#aa989e" stroke-width="1.51"/><path d="M2041,743L1946,857L2089,794Z" fill="#849ccb" stroke="#849ccb" stroke-width="1.51"/><path d="M1944,514L1949,680L2049,527Z" fill="#a6adbd" stroke="#a6adbd" stroke-width="1.51"/><path d="M1907,185L1906,429L2072,281Z" fill="#af9798" stroke="#af9798" stroke-width="1.51"/><path d="M1946,857L1903,943L2065,947Z" fill="#7298c8" stroke="#7298c8" stroke-width="1.51"/><path d="M1767,1240L1655,1318L1930,1254Z" fill="#5177b6" stroke="#5177b6" stroke-width="1.51"/><path d="M1949,680L1946,857L2041,743Z" fill="#8ca5d0" stroke="#8ca5d0" stroke-width="1.51"/><path d="M431,1317L324,1341L858,1308Z" fill="#a97c89" stroke="#a97c89" stroke-width="1.51"/><path d="M1802,386L1906,429L1907,185Z" fill="#b4a8a2" stroke="#b4a8a2" stroke-width="1.51"/><path d="M1903,943L1827,974L1910,1183Z" fill="#6295c5" stroke="#6295c5" stroke-width="1.51"/><path d="M1755,-201L1739,-76L1927,-252Z" fill="#aa6472" stroke="#aa6472" stroke-width="1.51"/><path d="M1944,514L1813,640L1949,680Z" fill="#a4b7c8" stroke="#a4b7c8" stroke-width="1.51"/><path d="M1927,-252L1739,-76L1987,-20Z" fill="#ac616f" stroke="#ac616f" stroke-width="1.51"/><path d="M1739,-76L1900,119L1987,-20Z" fill="#b5737c" stroke="#b5737c" stroke-width="1.51"/><path d="M708,-266L1037,-202L1238,-222Z" fill="#e19472" stroke="#e19472" stroke-width="1.51"/><path d="M1729,263L1802,386L1907,185Z" fill="#baa89d" stroke="#baa89d" stroke-width="1.51"/><path d="M1827,974L1741,1161L1910,1183Z" fill="#5d8fc2" stroke="#5d8fc2" stroke-width="1.51"/><path d="M1813,640L1747,851L1946,857Z" fill="#91b6d8" stroke="#91b6d8" stroke-width="1.51"/><path d="M1813,640L1946,857L1949,680Z" fill="#95b2d6" stroke="#95b2d6" stroke-width="1.51"/><path d="M1739,-76L1807,145L1900,119Z" fill="#bc8385" stroke="#bc8385" stroke-width="1.51"/><path d="M1731,529L1813,640L1944,514Z" fill="#b1c1c4" stroke="#b1c1c4" stroke-width="1.51"/><path d="M1747,851L1903,943L1946,857Z" fill="#7eaad1" stroke="#7eaad1" stroke-width="1.51"/><path d="M1906,429L1731,529L1944,514Z" fill="#b1bab8" stroke="#b1bab8" stroke-width="1.51"/><path d="M1910,1183L1767,1240L1930,1254Z" fill="#4a76b5" stroke="#4a76b5" stroke-width="1.51"/><path d="M1747,851L1827,974L1903,943Z" fill="#7baad0" stroke="#7baad0" stroke-width="1.51"/><path d="M1802,386L1731,529L1906,429Z" fill="#b6bcb5" stroke="#b6bcb5" stroke-width="1.51"/><path d="M1807,145L1729,263L1907,185Z" fill="#bc9b93" stroke="#bc9b93" stroke-width="1.51"/><path d="M1900,119L1807,145L1907,185Z" fill="#b78c8b" stroke="#b78c8b" stroke-width="1.51"/><path d="M1741,1161L1767,1240L1910,1183Z" fill="#5283bc" stroke="#5283bc" stroke-width="1.51"/><path d="M1739,-76L1645,-14L1807,145Z" fill="#c28684" stroke="#c28684" stroke-width="1.51"/><path d="M1670,795L1747,851L1813,640Z" fill="#9dc3de" stroke="#9dc3de" stroke-width="1.51"/><path d="M1747,851L1661,957L1827,974Z" fill="#80b3d5" stroke="#80b3d5" stroke-width="1.51"/><path d="M1661,957L1741,1161L1827,974Z" fill="#6fa6cd" stroke="#6fa6cd" stroke-width="1.51"/><path d="M1652,401L1731,529L1802,386Z" fill="#bdc5b8" stroke="#bdc5b8" stroke-width="1.51"/><path d="M1590,103L1672,207L1807,145Z" fill="#c7a394" stroke="#c7a394" stroke-width="1.51"/><path d="M1645,-14L1590,103L1807,145Z" fill="#c8978d" stroke="#c8978d" stroke-width="1.51"/><path d="M1672,207L1729,263L1807,145Z" fill="#c3a697" stroke="#c3a697" stroke-width="1.51"/><path d="M1598,712L1670,795L1813,640Z" fill="#a9cde3" stroke="#a9cde3" stroke-width="1.51"/><path d="M1731,529L1661,543L1813,640Z" fill="#b7cdcb" stroke="#b7cdcb" stroke-width="1.51"/><path d="M1661,543L1598,712L1813,640Z" fill="#b4d0d8" stroke="#b4d0d8" stroke-width="1.51"/><path d="M1729,263L1652,401L1802,386Z" fill="#bfbcac" stroke="#bfbcac" stroke-width="1.51"/><path d="M1661,957L1598,1143L1741,1161Z" fill="#6fa5cd" stroke="#6fa5cd" stroke-width="1.51"/><path d="M1588,-238L1739,-76L1755,-201Z" fill="#b47378" stroke="#b47378" stroke-width="1.51"/><path d="M1741,1161L1655,1318L1767,1240Z" fill="#5984bd" stroke="#5984bd" stroke-width="1.51"/><path d="M1652,401L1661,543L1731,529Z" fill="#c0d1c2" stroke="#c0d1c2" stroke-width="1.51"/><path d="M1598,1143L1655,1318L1741,1161Z" fill="#5f90c3" stroke="#5f90c3" stroke-width="1.51"/><path d="M1588,-238L1645,-14L1739,-76Z" fill="#c17d7c" stroke="#c17d7c" stroke-width="1.51"/><path d="M1670,795L1661,957L1747,851Z" fill="#90c1dc" stroke="#90c1dc" stroke-width="1.51"/><path d="M1672,207L1652,401L1729,263Z" fill="#c5b9a6" stroke="#c5b9a6" stroke-width="1.51"/><path d="M1486,-183L1493,-68L1588,-238Z" fill="#c78380" stroke="#c78380" stroke-width="1.51"/><path d="M1588,-238L1493,-68L1645,-14Z" fill="#c9847f" stroke="#c9847f" stroke-width="1.51"/><path d="M1598,1143L1520,1345L1655,1318Z" fill="#668bc1" stroke="#668bc1" stroke-width="1.51"/><path d="M1471,968L1598,1143L1661,957Z" fill="#82b8d7" stroke="#82b8d7" stroke-width="1.51"/><path d="M1534,795L1471,968L1661,957Z" fill="#98c9e0" stroke="#98c9e0" stroke-width="1.51"/><path d="M1512,568L1598,712L1661,543Z" fill="#c1dbd9" stroke="#c1dbd9" stroke-width="1.51"/><path d="M1652,401L1526,399L1661,543Z" fill="#c8d3c0" stroke="#c8d3c0" stroke-width="1.51"/><path d="M1526,399L1512,568L1661,543Z" fill="#ccdcc9" stroke="#ccdcc9" stroke-width="1.51"/><path d="M1534,795L1661,957L1670,795Z" fill="#9acae1" stroke="#9acae1" stroke-width="1.51"/><path d="M1590,103L1453,256L1672,207Z" fill="#d2b49d" stroke="#d2b49d" stroke-width="1.51"/><path d="M1526,399L1652,401L1672,207Z" fill="#cac6b0" stroke="#cac6b0" stroke-width="1.51"/><path d="M1453,256L1526,399L1672,207Z" fill="#d2c6ac" stroke="#d2c6ac" stroke-width="1.51"/><path d="M1598,712L1534,795L1670,795Z" fill="#aad2e6" stroke="#aad2e6" stroke-width="1.51"/><path d="M998,1272L858,1308L1320,1320Z" fill="#9ea0bd" stroke="#9ea0bd" stroke-width="1.51"/><path d="M1471,968L1482,1127L1598,1143Z" fill="#82b4d5" stroke="#82b4d5" stroke-width="1.51"/><path d="M1512,568L1483,637L1598,712Z" fill="#c4e0e1" stroke="#c4e0e1" stroke-width="1.51"/><path d="M1493,-68L1590,103L1645,-14Z" fill="#d0958a" stroke="#d0958a" stroke-width="1.51"/><path d="M1389,-236L1486,-183L1588,-238Z" fill="#c18180" stroke="#c18180" stroke-width="1.51"/><path d="M1493,-68L1454,78L1590,103Z" fill="#d99f91" stroke="#d99f91" stroke-width="1.51"/><path d="M1454,78L1453,256L1590,103Z" fill="#dab39c" stroke="#dab39c" stroke-width="1.51"/><path d="M1482,1127L1520,1345L1598,1143Z" fill="#709cca" stroke="#709cca" stroke-width="1.51"/><path d="M1483,637L1534,795L1598,712Z" fill="#badceb" stroke="#badceb" stroke-width="1.51"/><path d="M1482,1127L1320,1320L1520,1345Z" fill="#7898c9" stroke="#7898c9" stroke-width="1.51"/><path d="M1303,496L1512,568L1526,399Z" fill="#d8e6cd" stroke="#d8e6cd" stroke-width="1.51"/><path d="M1348,890L1471,968L1534,795Z" fill="#a8d6e8" stroke="#a8d6e8" stroke-width="1.51"/><path d="M1483,637L1308,656L1534,795Z" fill="#c7e6ef" stroke="#c7e6ef" stroke-width="1.51"/><path d="M1308,656L1348,890L1534,795Z" fill="#bfe2ef" stroke="#bfe2ef" stroke-width="1.51"/><path d="M1471,968L1350,1037L1482,1127Z" fill="#90c2dc" stroke="#90c2dc" stroke-width="1.51"/><path d="M1453,256L1285,383L1526,399Z" fill="#ddd9ba" stroke="#ddd9ba" stroke-width="1.51"/><path d="M1285,383L1303,496L1526,399Z" fill="#e1e5c6" stroke="#e1e5c6" stroke-width="1.51"/><path d="M1286,1166L1320,1320L1482,1127Z" fill="#84a8d1" stroke="#84a8d1" stroke-width="1.51"/><path d="M1348,228L1453,256L1454,78Z" fill="#e1c1a4" stroke="#e1c1a4" stroke-width="1.51"/><path d="M1303,496L1483,637L1512,568Z" fill="#d7ebd9" stroke="#d7ebd9" stroke-width="1.51"/><path d="M1303,496L1308,656L1483,637Z" fill="#dbeee1" stroke="#dbeee1" stroke-width="1.51"/><path d="M1389,-236L1326,-56L1486,-183Z" fill="#d38c84" stroke="#d38c84" stroke-width="1.51"/><path d="M1486,-183L1326,-56L1493,-68Z" fill="#d79186" stroke="#d79186" stroke-width="1.51"/><path d="M1326,-56L1454,78L1493,-68Z" fill="#de9e8e" stroke="#de9e8e" stroke-width="1.51"/><path d="M1348,228L1285,383L1453,256Z" fill="#e5d3b3" stroke="#e5d3b3" stroke-width="1.51"/><path d="M1350,1037L1286,1166L1482,1127Z" fill="#8eb9d9" stroke="#8eb9d9" stroke-width="1.51"/><path d="M1312,89L1348,228L1454,78Z" fill="#e7b99f" stroke="#e7b99f" stroke-width="1.51"/><path d="M1326,-56L1312,89L1454,78Z" fill="#e7a896" stroke="#e7a896" stroke-width="1.51"/><path d="M1348,890L1350,1037L1471,968Z" fill="#a1cee3" stroke="#a1cee3" stroke-width="1.51"/><path d="M1308,656L1237,829L1348,890Z" fill="#c8e6f1" stroke="#c8e6f1" stroke-width="1.51"/><path d="M1217,1261L998,1272L1320,1320Z" fill="#94a1cc" stroke="#94a1cc" stroke-width="1.51"/><path d="M1348,890L1232,935L1350,1037Z" fill="#acd4e7" stroke="#acd4e7" stroke-width="1.51"/><path d="M1238,-222L1326,-56L1389,-236Z" fill="#d88f86" stroke="#d88f86" stroke-width="1.51"/><path d="M636,1279L431,1317L858,1308Z" fill="#aa8b95" stroke="#aa8b95" stroke-width="1.51"/><path d="M1303,496L1164,560L1308,656Z" fill="#e8f5df" stroke="#e8f5df" stroke-width="1.51"/><path d="M1286,1166L1217,1261L1320,1320Z" fill="#8ca4cf" stroke="#8ca4cf" stroke-width="1.51"/><path d="M1238,-222L1212,-48L1326,-56Z" fill="#e7998a" stroke="#e7998a" stroke-width="1.51"/><path d="M1226,49L1312,89L1326,-56Z" fill="#edab96" stroke="#edab96" stroke-width="1.51"/><path d="M1312,89L1166,188L1348,228Z" fill="#efc5a5" stroke="#efc5a5" stroke-width="1.51"/><path d="M1166,188L1285,383L1348,228Z" fill="#efd5b3" stroke="#efd5b3" stroke-width="1.51"/><path d="M1148,1111L1286,1166L1350,1037Z" fill="#9cbfdd" stroke="#9cbfdd" stroke-width="1.51"/><path d="M1232,935L1148,1111L1350,1037Z" fill="#a8cee3" stroke="#a8cee3" stroke-width="1.51"/><path d="M1237,829L1232,935L1348,890Z" fill="#bbe0ed" stroke="#bbe0ed" stroke-width="1.51"/><path d="M1285,383L1230,444L1303,496Z" fill="#ebebcb" stroke="#ebebcb" stroke-width="1.51"/><path d="M1156,659L1237,829L1308,656Z" fill="#dbf0f7" stroke="#dbf0f7" stroke-width="1.51"/><path d="M1212,-48L1226,49L1326,-56Z" fill="#eda693" stroke="#eda693" stroke-width="1.51"/><path d="M1226,49L1166,188L1312,89Z" fill="#f3bca0" stroke="#f3bca0" stroke-width="1.51"/><path d="M1164,560L1156,659L1308,656Z" fill="#e8f5ea" stroke="#e8f5ea" stroke-width="1.51"/><path d="M1230,444L1164,560L1303,496Z" fill="#eef3d5" stroke="#eef3d5" stroke-width="1.51"/><path d="M1166,188L1031,374L1230,444Z" fill="#f7e5b8" stroke="#f7e5b8" stroke-width="1.51"/><path d="M1166,188L1230,444L1285,383Z" fill="#f1e2be" stroke="#f1e2be" stroke-width="1.51"/><path d="M1148,1111L1217,1261L1286,1166Z" fill="#97b5d8" stroke="#97b5d8" stroke-width="1.51"/><path d="M1078,187L1031,374L1166,188Z" fill="#fbd9a5" stroke="#fbd9a5" stroke-width="1.51"/><path d="M1045,1019L1148,1111L1232,935Z" fill="#b3d2df" stroke="#b3d2df" stroke-width="1.51"/><path d="M997,785L1045,1019L1232,935Z" fill="#c8e2e1" stroke="#c8e2e1" stroke-width="1.51"/><path d="M1156,659L1004,745L1237,829Z" fill="#dff1ee" stroke="#dff1ee" stroke-width="1.51"/><path d="M1004,745L997,785L1237,829Z" fill="#dcefe7" stroke="#dcefe7" stroke-width="1.51"/><path d="M997,785L1232,935L1237,829Z" fill="#cde8ed" stroke="#cde8ed" stroke-width="1.51"/><path d="M1037,-202L1212,-48L1238,-222Z" fill="#e79785" stroke="#e79785" stroke-width="1.51"/><path d="M1148,1111L1062,1161L1217,1261Z" fill="#9fb7d2" stroke="#9fb7d2" stroke-width="1.51"/><path d="M1036,115L1166,188L1226,49Z" fill="#fac19c" stroke="#fac19c" stroke-width="1.51"/><path d="M1212,-48L999,-30L1226,49Z" fill="#f5ac8f" stroke="#f5ac8f" stroke-width="1.51"/><path d="M1031,374L1164,560L1230,444Z" fill="#f6f3c9" stroke="#f6f3c9" stroke-width="1.51"/><path d="M999,-30L1036,115L1226,49Z" fill="#fbb58e" stroke="#fbb58e" stroke-width="1.51"/><path d="M1037,-202L999,-30L1212,-48Z" fill="#f2a17f" stroke="#f2a17f" stroke-width="1.51"/><path d="M1062,1161L998,1272L1217,1261Z" fill="#9fadc7" stroke="#9fadc7" stroke-width="1.51"/><path d="M995,542L1156,659L1164,560Z" fill="#f3f9d9" stroke="#f3f9d9" stroke-width="1.51"/><path d="M1031,374L995,542L1164,560Z" fill="#faf8c5" stroke="#faf8c5" stroke-width="1.51"/><path d="M1036,115L1078,187L1166,188Z" fill="#fbca9b" stroke="#fbca9b" stroke-width="1.51"/><path d="M995,542L1004,745L1156,659Z" fill="#f1f8dd" stroke="#f1f8dd" stroke-width="1.51"/><path d="M995,542L934,655L1004,745Z" fill="#f5fad4" stroke="#f5fad4" stroke-width="1.51"/><path d="M1045,1019L1062,1161L1148,1111Z" fill="#aec7d2" stroke="#aec7d2" stroke-width="1.51"/><path d="M708,-266L866,-157L1037,-202Z" fill="#e59166" stroke="#e59166" stroke-width="1.51"/><path d="M997,785L895,870L1045,1019Z" fill="#d4e8d6" stroke="#d4e8d6" stroke-width="1.51"/><path d="M1045,1019L917,1043L1062,1161Z" fill="#b7cdcc" stroke="#b7cdcc" stroke-width="1.51"/><path d="M1036,115L912,198L1078,187Z" fill="#ffcd91" stroke="#ffcd91" stroke-width="1.51"/><path d="M912,198L1031,374L1078,187Z" fill="#ffdc9b" stroke="#ffdc9b" stroke-width="1.51"/><path d="M912,198L879,370L1031,374Z" fill="#ffe59c" stroke="#ffe59c" stroke-width="1.51"/><path d="M912,513L995,542L1031,374Z" fill="#fef8b8" stroke="#fef8b8" stroke-width="1.51"/><path d="M866,-157L999,-30L1037,-202Z" fill="#f39f70" stroke="#f39f70" stroke-width="1.51"/><path d="M895,870L917,1043L1045,1019Z" fill="#c8dccc" stroke="#c8dccc" stroke-width="1.51"/><path d="M861,1108L998,1272L1062,1161Z" fill="#adbabe" stroke="#adbabe" stroke-width="1.51"/><path d="M917,1043L861,1108L1062,1161Z" fill="#b7c7c2" stroke="#b7c7c2" stroke-width="1.51"/><path d="M879,370L912,513L1031,374Z" fill="#fff2ab" stroke="#fff2ab" stroke-width="1.51"/><path d="M999,-30L875,142L1036,115Z" fill="#ffbd83" stroke="#ffbd83" stroke-width="1.51"/><path d="M875,142L912,198L1036,115Z" fill="#ffcb88" stroke="#ffcb88" stroke-width="1.51"/><path d="M912,513L934,655L995,542Z" fill="#fdfdc3" stroke="#fdfdc3" stroke-width="1.51"/><path d="M861,1108L858,1308L998,1272Z" fill="#abaeb4" stroke="#abaeb4" stroke-width="1.51"/><path d="M845,-97L875,142L999,-30Z" fill="#fcaf76" stroke="#fcaf76" stroke-width="1.51"/><path d="M866,-157L845,-97L999,-30Z" fill="#f6a06c" stroke="#f6a06c" stroke-width="1.51"/><path d="M934,655L997,785L1004,745Z" fill="#edf6dd" stroke="#edf6dd" stroke-width="1.51"/><path d="M934,655L785,726L997,785Z" fill="#eff4d5" stroke="#eff4d5" stroke-width="1.51"/><path d="M785,726L895,870L997,785Z" fill="#e4edd2" stroke="#e4edd2" stroke-width="1.51"/><path d="M752,1182L858,1308L861,1108Z" fill="#adaeaf" stroke="#adaeaf" stroke-width="1.51"/><path d="M845,-97L786,137L875,142Z" fill="#ffb375" stroke="#ffb375" stroke-width="1.51"/><path d="M739,232L879,370L912,198Z" fill="#ffd88c" stroke="#ffd88c" stroke-width="1.51"/><path d="M895,870L733,966L917,1043Z" fill="#ccd9c4" stroke="#ccd9c4" stroke-width="1.51"/><path d="M912,513L705,567L934,655Z" fill="#fcf6bb" stroke="#fcf6bb" stroke-width="1.51"/><path d="M705,567L785,726L934,655Z" fill="#f7f1c3" stroke="#f7f1c3" stroke-width="1.51"/><path d="M696,-36L786,137L845,-97Z" fill="#fba669" stroke="#fba669" stroke-width="1.51"/><path d="M879,370L705,567L912,513Z" fill="#fff1aa" stroke="#fff1aa" stroke-width="1.51"/><path d="M733,966L861,1108L917,1043Z" fill="#c1cdbd" stroke="#c1cdbd" stroke-width="1.51"/><path d="M875,142L786,137L912,198Z" fill="#ffc780" stroke="#ffc780" stroke-width="1.51"/><path d="M786,137L739,232L912,198Z" fill="#ffc97f" stroke="#ffc97f" stroke-width="1.51"/><path d="M752,1182L740,1246L858,1308Z" fill="#aba3a7" stroke="#aba3a7" stroke-width="1.51"/><path d="M690,341L705,567L879,370Z" fill="#ffe79a" stroke="#ffe79a" stroke-width="1.51"/><path d="M785,726L682,882L895,870Z" fill="#e1e4c6" stroke="#e1e4c6" stroke-width="1.51"/><path d="M682,882L733,966L895,870Z" fill="#d5dac0" stroke="#d5dac0" stroke-width="1.51"/><path d="M740,1246L636,1279L858,1308Z" fill="#a999a1" stroke="#a999a1" stroke-width="1.51"/><path d="M739,232L690,341L879,370Z" fill="#ffda8c" stroke="#ffda8c" stroke-width="1.51"/><path d="M733,966L752,1182L861,1108Z" fill="#bcc1b4" stroke="#bcc1b4" stroke-width="1.51"/><path d="M708,-266L845,-97L866,-157Z" fill="#ea9160" stroke="#ea9160" stroke-width="1.51"/><path d="M295,-215L386,-187L708,-266Z" fill="#dc6a42" stroke="#dc6a42" stroke-width="1.51"/><path d="M708,-266L696,-36L845,-97Z" fill="#ef915b" stroke="#ef915b" stroke-width="1.51"/><path d="M733,966L629,1102L752,1182Z" fill="#bdbcad" stroke="#bdbcad" stroke-width="1.51"/><path d="M589,790L682,882L785,726Z" fill="#e6debd" stroke="#e6debd" stroke-width="1.51"/><path d="M705,567L601,668L785,726Z" fill="#f7e9b9" stroke="#f7e9b9" stroke-width="1.51"/><path d="M546,107L739,232L786,137Z" fill="#febb70" stroke="#febb70" stroke-width="1.51"/><path d="M696,-36L546,107L786,137Z" fill="#fca866" stroke="#fca866" stroke-width="1.51"/><path d="M601,668L589,790L785,726Z" fill="#f0e1bd" stroke="#f0e1bd" stroke-width="1.51"/><path d="M-208,-257L30,-187L295,-215Z" fill="#ca2c29" stroke="#ca2c29" stroke-width="1.51"/><path d="M545,383L594,559L690,341Z" fill="#ffd98c" stroke="#ffd98c" stroke-width="1.51"/><path d="M690,341L594,559L705,567Z" fill="#ffe49a" stroke="#ffe49a" stroke-width="1.51"/><path d="M386,-187L534,-161L708,-266Z" fill="#e07548" stroke="#e07548" stroke-width="1.51"/><path d="M534,-161L696,-36L708,-266Z" fill="#ea8552" stroke="#ea8552" stroke-width="1.51"/><path d="M609,1030L629,1102L733,966Z" fill="#c4c0ac" stroke="#c4c0ac" stroke-width="1.51"/><path d="M636,1279L740,1246L752,1182Z" fill="#ac9fa1" stroke="#ac9fa1" stroke-width="1.51"/><path d="M629,1102L636,1279L752,1182Z" fill="#b1a6a2" stroke="#b1a6a2" stroke-width="1.51"/><path d="M534,-161L535,-99L696,-36Z" fill="#f0854e" stroke="#f0854e" stroke-width="1.51"/><path d="M538,255L690,341L739,232Z" fill="#fecb7b" stroke="#fecb7b" stroke-width="1.51"/><path d="M546,107L538,255L739,232Z" fill="#feba6c" stroke="#feba6c" stroke-width="1.51"/><path d="M682,882L609,1030L733,966Z" fill="#cfccb3" stroke="#cfccb3" stroke-width="1.51"/><path d="M594,559L601,668L705,567Z" fill="#fce4a9" stroke="#fce4a9" stroke-width="1.51"/><path d="M535,-99L546,107L696,-36Z" fill="#f79357" stroke="#f79357" stroke-width="1.51"/><path d="M538,255L545,383L690,341Z" fill="#ffcb7c" stroke="#ffcb7c" stroke-width="1.51"/><path d="M629,1102L490,1185L636,1279Z" fill="#b29d99" stroke="#b29d99" stroke-width="1.51"/><path d="M479,982L609,1030L682,882Z" fill="#d0c3aa" stroke="#d0c3aa" stroke-width="1.51"/><path d="M589,790L479,982L682,882Z" fill="#dbcdaf" stroke="#dbcdaf" stroke-width="1.51"/><path d="M488,799L479,982L589,790Z" fill="#e1c9a9" stroke="#e1c9a9" stroke-width="1.51"/><path d="M545,383L480,530L594,559Z" fill="#ffd98f" stroke="#ffd98f" stroke-width="1.51"/><path d="M490,1185L431,1317L636,1279Z" fill="#ae878d" stroke="#ae878d" stroke-width="1.51"/><path d="M609,1030L490,1185L629,1102Z" fill="#bdab9f" stroke="#bdab9f" stroke-width="1.51"/><path d="M594,559L480,530L601,668Z" fill="#fedd9f" stroke="#fedd9f" stroke-width="1.51"/><path d="M488,799L589,790L601,668Z" fill="#efd5b2" stroke="#efd5b2" stroke-width="1.51"/><path d="M479,982L490,1185L609,1030Z" fill="#c3ad9d" stroke="#c3ad9d" stroke-width="1.51"/><path d="M535,-99L424,-84L546,107Z" fill="#f4874d" stroke="#f4874d" stroke-width="1.51"/><path d="M383,655L488,799L601,668Z" fill="#f6d1ad" stroke="#f6d1ad" stroke-width="1.51"/><path d="M480,530L383,655L601,668Z" fill="#fcd49e" stroke="#fcd49e" stroke-width="1.51"/><path d="M461,398L480,530L545,383Z" fill="#ffcf83" stroke="#ffcf83" stroke-width="1.51"/><path d="M458,126L538,255L546,107Z" fill="#fda960" stroke="#fda960" stroke-width="1.51"/><path d="M424,-84L458,126L546,107Z" fill="#f98f52" stroke="#f98f52" stroke-width="1.51"/><path d="M30,-187L112,-179L295,-215Z" fill="#d43e2f" stroke="#d43e2f" stroke-width="1.51"/><path d="M458,126L422,187L538,255Z" fill="#fda95e" stroke="#fda95e" stroke-width="1.51"/><path d="M538,255L461,398L545,383Z" fill="#fec677" stroke="#fec677" stroke-width="1.51"/><path d="M422,187L461,398L538,255Z" fill="#feb86a" stroke="#feb86a" stroke-width="1.51"/><path d="M422,187L327,292L461,398Z" fill="#fdb167" stroke="#fdb167" stroke-width="1.51"/><path d="M534,-161L424,-84L535,-99Z" fill="#ed7945" stroke="#ed7945" stroke-width="1.51"/><path d="M386,-187L424,-84L534,-161Z" fill="#e86f41" stroke="#e86f41" stroke-width="1.51"/><path d="M285,-12L319,103L424,-84Z" fill="#f37546" stroke="#f37546" stroke-width="1.51"/><path d="M424,-84L319,103L458,126Z" fill="#f8844d" stroke="#f8844d" stroke-width="1.51"/><path d="M461,398L267,409L480,530Z" fill="#ffc47d" stroke="#ffc47d" stroke-width="1.51"/><path d="M308,979L479,982L488,799Z" fill="#d9b69e" stroke="#d9b69e" stroke-width="1.51"/><path d="M232,860L308,979L488,799Z" fill="#dfb19b" stroke="#dfb19b" stroke-width="1.51"/><path d="M242,1195L431,1317L490,1185Z" fill="#b07f85" stroke="#b07f85" stroke-width="1.51"/><path d="M479,982L308,979L490,1185Z" fill="#c6a596" stroke="#c6a596" stroke-width="1.51"/><path d="M308,979L242,1195L490,1185Z" fill="#bd8f8b" stroke="#bd8f8b" stroke-width="1.51"/><path d="M383,655L232,860L488,799Z" fill="#eebea2" stroke="#eebea2" stroke-width="1.51"/><path d="M256,575L383,655L480,530Z" fill="#fec890" stroke="#fec890" stroke-width="1.51"/><path d="M267,409L256,575L480,530Z" fill="#ffc180" stroke="#ffc180" stroke-width="1.51"/><path d="M242,1195L324,1341L431,1317Z" fill="#ac6c7d" stroke="#ac6c7d" stroke-width="1.51"/><path d="M327,292L267,409L461,398Z" fill="#fdb56e" stroke="#fdb56e" stroke-width="1.51"/><path d="M319,103L422,187L458,126Z" fill="#fb9655" stroke="#fb9655" stroke-width="1.51"/><path d="M237,678L232,860L383,655Z" fill="#f3b69d" stroke="#f3b69d" stroke-width="1.51"/><path d="M386,-187L285,-12L424,-84Z" fill="#ec693e" stroke="#ec693e" stroke-width="1.51"/><path d="M319,103L327,292L422,187Z" fill="#fb9b57" stroke="#fb9b57" stroke-width="1.51"/><path d="M295,-215L285,-12L386,-187Z" fill="#e55c39" stroke="#e55c39" stroke-width="1.51"/><path d="M256,575L237,678L383,655Z" fill="#fbbb93" stroke="#fbbb93" stroke-width="1.51"/><path d="M132,-47L285,-12L295,-215Z" fill="#e85637" stroke="#e85637" stroke-width="1.51"/><path d="M112,-179L132,-47L295,-215Z" fill="#de4731" stroke="#de4731" stroke-width="1.51"/><path d="M129,1092L242,1195L308,979Z" fill="#c18585" stroke="#c18585" stroke-width="1.51"/><path d="M148,992L129,1092L308,979Z" fill="#c88e88" stroke="#c88e88" stroke-width="1.51"/><path d="M242,1195L143,1306L324,1341Z" fill="#ac6177" stroke="#ac6177" stroke-width="1.51"/><path d="M176,412L267,409L327,292Z" fill="#fdaa69" stroke="#fdaa69" stroke-width="1.51"/><path d="M127,234L176,412L327,292Z" fill="#fa9c5e" stroke="#fa9c5e" stroke-width="1.51"/><path d="M319,103L127,234L327,292Z" fill="#fa9153" stroke="#fa9153" stroke-width="1.51"/><path d="M285,-12L81,40L319,103Z" fill="#f46c42" stroke="#f46c42" stroke-width="1.51"/><path d="M81,40L127,234L319,103Z" fill="#f37746" stroke="#f37746" stroke-width="1.51"/><path d="M176,412L256,575L267,409Z" fill="#feb074" stroke="#feb074" stroke-width="1.51"/><path d="M232,860L148,992L308,979Z" fill="#d59b8f" stroke="#d59b8f" stroke-width="1.51"/><path d="M143,691L232,860L237,678Z" fill="#f0ac97" stroke="#f0ac97" stroke-width="1.51"/><path d="M176,412L159,576L256,575Z" fill="#feb27a" stroke="#feb27a" stroke-width="1.51"/><path d="M132,-47L81,40L285,-12Z" fill="#eb5c3a" stroke="#eb5c3a" stroke-width="1.51"/><path d="M143,691L103,847L232,860Z" fill="#e6a391" stroke="#e6a391" stroke-width="1.51"/><path d="M159,576L237,678L256,575Z" fill="#fbb389" stroke="#fbb389" stroke-width="1.51"/><path d="M103,847L148,992L232,860Z" fill="#d89a8d" stroke="#d89a8d" stroke-width="1.51"/><path d="M159,576L143,691L237,678Z" fill="#f7ae8e" stroke="#f7ae8e" stroke-width="1.51"/><path d="M129,1092L143,1306L242,1195Z" fill="#b06d79" stroke="#b06d79" stroke-width="1.51"/><path d="M81,40L18,123L127,234Z" fill="#ee6e40" stroke="#ee6e40" stroke-width="1.51"/><path d="M-14,294L-20,356L127,234Z" fill="#f08750" stroke="#f08750" stroke-width="1.51"/><path d="M-2,1100L31,1284L129,1092Z" fill="#b06874" stroke="#b06874" stroke-width="1.51"/><path d="M129,1092L31,1284L143,1306Z" fill="#aa5f72" stroke="#aa5f72" stroke-width="1.51"/><path d="M127,234L-20,356L176,412Z" fill="#f49459" stroke="#f49459" stroke-width="1.51"/><path d="M-28,581L159,576L176,412Z" fill="#f9a973" stroke="#f9a973" stroke-width="1.51"/><path d="M-20,356L-28,581L176,412Z" fill="#f49c66" stroke="#f49c66" stroke-width="1.51"/><path d="M-19,674L103,847L143,691Z" fill="#ea9f8e" stroke="#ea9f8e" stroke-width="1.51"/><path d="M22,1042L129,1092L148,992Z" fill="#c18280" stroke="#c18280" stroke-width="1.51"/><path d="M103,847L22,1042L148,992Z" fill="#cc8c84" stroke="#cc8c84" stroke-width="1.51"/><path d="M-19,674L143,691L159,576Z" fill="#f3a587" stroke="#f3a587" stroke-width="1.51"/><path d="M-28,581L-19,674L159,576Z" fill="#f3a17d" stroke="#f3a17d" stroke-width="1.51"/><path d="M112,-179L30,-187L132,-47Z" fill="#da3c2c" stroke="#da3c2c" stroke-width="1.51"/><path d="M30,-187L6,-26L132,-47Z" fill="#de402c" stroke="#de402c" stroke-width="1.51"/><path d="M-50,827L22,1042L103,847Z" fill="#d28c83" stroke="#d28c83" stroke-width="1.51"/><path d="M-19,674L-50,827L103,847Z" fill="#e19688" stroke="#e19688" stroke-width="1.51"/><path d="M6,-26L81,40L132,-47Z" fill="#e55034" stroke="#e55034" stroke-width="1.51"/><path d="M22,1042L-2,1100L129,1092Z" fill="#ba767a" stroke="#ba767a" stroke-width="1.51"/><path d="M18,123L-14,294L127,234Z" fill="#ee7b46" stroke="#ee7b46" stroke-width="1.51"/><path d="M6,-26L18,123L81,40Z" fill="#e85637" stroke="#e85637" stroke-width="1.51"/><path d="M-219,546L-28,581L-20,356Z" fill="#e99568" stroke="#e99568" stroke-width="1.51"/><path d="M-166,340L-219,546L-20,356Z" fill="#e38b5d" stroke="#e38b5d" stroke-width="1.51"/><path d="M-113,717L-50,827L-19,674Z" fill="#e09488" stroke="#e09488" stroke-width="1.51"/><path d="M6,-26L-129,126L18,123Z" fill="#e35637" stroke="#e35637" stroke-width="1.51"/><path d="M-129,126L-14,294L18,123Z" fill="#e76d40" stroke="#e76d40" stroke-width="1.51"/><path d="M-50,827L-119,858L22,1042Z" fill="#ca8681" stroke="#ca8681" stroke-width="1.51"/><path d="M-119,858L-156,1021L22,1042Z" fill="#bd7b7c" stroke="#bd7b7c" stroke-width="1.51"/><path d="M-140,-40L6,-26L30,-187Z" fill="#d7362a" stroke="#d7362a" stroke-width="1.51"/><path d="M-208,-257L-140,-40L30,-187Z" fill="#c52327" stroke="#c52327" stroke-width="1.51"/><path d="M-2,1100L-117,1258L31,1284Z" fill="#a4576c" stroke="#a4576c" stroke-width="1.51"/><path d="M-140,-40L-129,126L6,-26Z" fill="#da4733" stroke="#da4733" stroke-width="1.51"/><path d="M-156,1021L-2,1100L22,1042Z" fill="#b67278" stroke="#b67278" stroke-width="1.51"/><path d="M-129,126L-163,285L-14,294Z" fill="#e27346" stroke="#e27346" stroke-width="1.51"/><path d="M-157,1088L-117,1258L-2,1100Z" fill="#a55f70" stroke="#a55f70" stroke-width="1.51"/><path d="M-156,1021L-157,1088L-2,1100Z" fill="#ae6c76" stroke="#ae6c76" stroke-width="1.51"/><path d="M-28,581L-113,717L-19,674Z" fill="#e89882" stroke="#e89882" stroke-width="1.51"/><path d="M-166,340L-20,356L-14,294Z" fill="#e88552" stroke="#e88552" stroke-width="1.51"/><path d="M-163,285L-166,340L-14,294Z" fill="#e37e4f" stroke="#e37e4f" stroke-width="1.51"/><path d="M-219,546L-113,717L-28,581Z" fill="#e3957a" stroke="#e3957a" stroke-width="1.51"/><path d="M-113,717L-119,858L-50,827Z" fill="#d48d85" stroke="#d48d85" stroke-width="1.51"/><path d="M-219,546L-119,858L-113,717Z" fill="#da9089" stroke="#da9089" stroke-width="1.51"/><path d="M-219,546L-156,1021L-119,858Z" fill="#cb8885" stroke="#cb8885" stroke-width="1.51"/><path d="M-140,-40L-163,285L-129,126Z" fill="#da5a3b" stroke="#da5a3b" stroke-width="1.51"/><path d="M-208,-257L-163,285L-140,-40Z" fill="#cf3d30" stroke="#cf3d30" stroke-width="1.51"/><path d="M-208,-257L-219,546L-163,285Z" fill="#d66540" stroke="#d66540" stroke-width="1.51"/><path d="M-219,546L-157,1088L-156,1021Z" fill="#c08181" stroke="#c08181" stroke-width="1.51"/><path d="M-219,546L-166,340L-163,285Z" fill="#dd865a" stroke="#dd865a" stroke-width="1.51"/></svg>